<svg version="1.1" viewBox="0.0 0.0 240.0 48.0" fill="none" stroke="none" stroke-linecap="square" stroke-miterlimit="10" xmlns:xlink="http://www.w3.org/1999/xlink" xmlns="http://www.w3.org/2000/svg"><clipPath id="p.0"><path d="m0 0l240.0 0l0 48.0l-240.0 0l0 -48.0z" clip-rule="nonzero"/></clipPath><g clip-path="url(#p.0)"><path fill="#000000" fill-opacity="0.0" d="m0 0l240.0 0l0 48.0l-240.0 0z" fill-rule="evenodd"/><path fill="#000000" fill-opacity="0.0" d="m0 0l240.0 0l0 48.0l-240.0 0z" fill-rule="evenodd"/><path fill="#80b8e0" d="m18.050873 36.53125q-2.265625 0 -3.8125 -1.0625q-1.53125 -1.0625 -2.125 -2.96875q-0.59375 -1.90625 -0.09375 -4.296875q0.515625 -2.40625 1.890625 -4.296875q1.390625 -1.90625 3.375 -2.96875q2.0 -1.0625 4.234375 -1.0625q1.90625 0 3.140625 0.8125q1.25 0.8125 2.109375 2.3125l-1.953125 1.296875q-1.140625 -2.359375 -3.734375 -2.359375q-1.5625 0 -2.984375 0.796875q-1.40625 0.796875 -2.421875 2.234375q-1.0 1.4375 -1.390625 3.234375q-0.375 1.796875 0.015625 3.234375q0.40625 1.421875 1.484375 2.234375q1.078125 0.796875 2.640625 0.796875q1.59375 0 2.75 -0.546875q1.15625 -0.5625 2.203125 -1.625l1.515625 1.234375q-1.390625 1.375 -3.1875 2.1875q-1.78125 0.8125 -3.65625 0.8125zm20.334976 -16.65625q0.796875 0 1.484375 0.234375l-0.4375 2.0625q-0.625 -0.34375 -1.453125 -0.34375q-1.4375 0 -2.84375 0.8125q-1.40625 0.796875 -2.484375 2.3125q-1.0625 1.515625 -1.5 3.578125l-1.59375 7.46875l-2.265625 0l3.3125 -15.59375l2.265625 0l-0.65625 3.125q1.265625 -1.734375 2.84375 -2.6875q1.59375 -0.96875 3.328125 -0.96875zm6.5742645 16.65625q-2.234375 0 -3.78125 -1.0625q-1.53125 -1.0625 -2.125 -2.984375q-0.59375 -1.921875 -0.09375 -4.3125q0.515625 -2.40625 1.890625 -4.28125q1.375 -1.890625 3.34375 -2.953125q1.984375 -1.0625 4.21875 -1.0625q2.234375 0 3.765625 1.0625q1.546875 1.0625 2.140625 2.96875q0.609375 1.890625 0.09375 4.296875q-0.5 2.390625 -1.890625 4.296875q-1.390625 1.90625 -3.375 2.96875q-1.96875 1.0625 -4.1875 1.0625zm0.359375 -2.0625q1.609375 0 3.03125 -0.796875q1.421875 -0.8125 2.421875 -2.234375q1.0 -1.4375 1.375 -3.234375q0.390625 -1.796875 0 -3.234375q-0.390625 -1.4375 -1.484375 -2.234375q-1.078125 -0.796875 -2.6875 -0.796875q-1.5625 0 -2.96875 0.796875q-1.390625 0.796875 -2.390625 2.21875q-1.0 1.421875 -1.390625 3.21875q-0.375 1.828125 0.015625 3.265625q0.390625 1.421875 1.453125 2.234375q1.0625 0.796875 2.625 0.796875zm16.02533 2.0625q-2.265625 0 -3.78125 -0.96875q-1.5 -0.96875 -2.03125 -2.734375l2.25 -1.0q0.671875 2.640625 4.265625 2.640625q1.734375 0 3.0 -0.625q1.265625 -0.640625 1.546875 -1.96875q0.296875 -1.375 -0.484375 -2.03125q-0.765625 -0.671875 -3.015625 -0.875q-3.15625 -0.265625 -4.296875 -1.421875q-1.125 -1.171875 -0.71875 -3.109375q0.46875 -2.171875 2.28125 -3.359375q1.828125 -1.203125 4.546875 -1.203125q4.640625 0 5.546875 3.65625l-2.265625 1.0q-0.28125 -1.328125 -1.234375 -1.953125q-0.9375 -0.640625 -2.640625 -0.640625q-1.734375 0 -2.78125 0.640625q-1.046875 0.625 -1.296875 1.796875q-0.234375 1.09375 0.59375 1.78125q0.84375 0.671875 3.203125 0.875q2.90625 0.265625 4.09375 1.453125q1.203125 1.1875 0.796875 3.109375q-0.34375 1.578125 -1.484375 2.703125q-1.125 1.109375 -2.75 1.671875q-1.609375 0.5625 -3.34375 0.5625zm15.464218 0q-2.265625 0 -3.78125 -0.96875q-1.5 -0.96875 -2.03125 -2.734375l2.25 -1.0q0.671875 2.640625 4.265625 2.640625q1.734375 0 3.0 -0.625q1.265625 -0.640625 1.546875 -1.96875q0.296875 -1.375 -0.484375 -2.03125q-0.765625 -0.671875 -3.015625 -0.875q-3.15625 -0.265625 -4.296875 -1.421875q-1.125 -1.171875 -0.71875 -3.109375q0.46875 -2.171875 2.28125 -3.359375q1.828125 -1.203125 4.546875 -1.203125q4.640625 0 5.546875 3.65625l-2.265625 1.0q-0.28125 -1.328125 -1.234375 -1.953125q-0.9375 -0.640625 -2.640625 -0.640625q-1.734375 0 -2.78125 0.640625q-1.046875 0.625 -1.296875 1.796875q-0.234375 1.09375 0.59375 1.78125q0.84375 0.671875 3.203125 0.875q2.90625 0.265625 4.09375 1.453125q1.203125 1.1875 0.796875 3.109375q-0.34375 1.578125 -1.484375 2.703125q-1.125 1.109375 -2.75 1.671875q-1.609375 0.5625 -3.34375 0.5625zm21.229843 -16.65625q2.234375 0 3.765625 1.0625q1.546875 1.0625 2.140625 2.96875q0.609375 1.890625 0.09375 4.328125q-0.515625 2.40625 -1.90625 4.296875q-1.375 1.875 -3.359375 2.9375q-1.96875 1.0625 -4.203125 1.0625q-1.6875 0 -2.953125 -0.75q-1.265625 -0.75 -1.921875 -2.109375l-1.921875 9.0l-2.265625 0l4.734375 -22.265625l2.265625 0l-0.484375 2.296875q1.234375 -1.328125 2.796875 -2.078125q1.5625 -0.75 3.21875 -0.75zm-3.03125 14.59375q1.578125 0 2.984375 -0.796875q1.40625 -0.8125 2.390625 -2.21875q1.0 -1.421875 1.390625 -3.21875q0.390625 -1.828125 0 -3.265625q-0.390625 -1.4375 -1.46875 -2.234375q-1.0625 -0.796875 -2.640625 -0.796875q-1.59375 0 -3.015625 0.796875q-1.40625 0.796875 -2.40625 2.234375q-1.0 1.4375 -1.390625 3.234375q-0.375 1.796875 0.015625 3.234375q0.390625 1.421875 1.46875 2.234375q1.078125 0.796875 2.671875 0.796875zm10.743912 1.53125l5.140625 -24.203125l2.265625 0l-5.140625 24.203125l-2.265625 0zm24.40622 -15.59375l-3.3125 15.59375l-2.265625 0l0.484375 -2.296875q-1.25 1.328125 -2.8125 2.078125q-1.546875 0.75 -3.203125 0.75q-2.234375 0 -3.78125 -1.0625q-1.53125 -1.0625 -2.125 -2.96875q-0.59375 -1.90625 -0.09375 -4.328125q0.515625 -2.40625 1.890625 -4.28125q1.375 -1.890625 3.34375 -2.953125q1.984375 -1.0625 4.21875 -1.0625q1.703125 0 2.953125 0.75q1.265625 0.75 1.9375 2.109375l0.5 -2.328125l2.265625 0zm-10.75 14.0625q1.609375 0 3.03125 -0.796875q1.421875 -0.8125 2.421875 -2.234375q1.0 -1.4375 1.375 -3.234375q0.390625 -1.796875 0 -3.234375q-0.390625 -1.4375 -1.484375 -2.234375q-1.078125 -0.796875 -2.6875 -0.796875q-1.5625 0 -2.96875 0.796875q-1.390625 0.796875 -2.390625 2.21875q-1.0 1.421875 -1.390625 3.21875q-0.375 1.828125 0.015625 3.265625q0.390625 1.421875 1.453125 2.234375q1.0625 0.796875 2.625 0.796875zm12.478287 1.53125l2.875 -13.53125l-2.671875 0l0.4375 -2.0625l2.671875 0l1.09375 -5.171875l2.265625 0l-1.09375 5.171875l3.59375 0l-0.4375 2.0625l-3.59375 0l-2.875 13.53125l-2.265625 0z" fill-rule="nonzero"/><path fill="#cb5d80" d="m148.18655 36.0l0 -24.109375l13.765625 0l0 3.484375l-9.90625 0l0 6.546875l7.34375 0l0 3.40625l-7.34375 0l0 10.671875l-3.859375 0zm21.984085 0.53125q-2.421875 0 -4.359375 -1.15625q-1.921875 -1.171875 -3.015625 -3.25q-1.078125 -2.078125 -1.078125 -4.640625q0 -2.578125 1.0625 -4.609375q1.0625 -2.046875 2.96875 -3.203125q1.921875 -1.171875 4.34375 -1.171875q2.421875 0 4.34375 1.171875q1.9375 1.15625 3.015625 3.21875q1.09375 2.046875 1.09375 4.625q0 2.5625 -1.078125 4.625q-1.0625 2.0625 -2.984375 3.234375q-1.90625 1.15625 -4.3125 1.15625zm-0.078125 -3.4375q1.40625 0 2.484375 -0.6875q1.09375 -0.703125 1.703125 -1.96875q0.625 -1.28125 0.625 -2.921875q0 -1.640625 -0.625 -2.921875q-0.609375 -1.28125 -1.703125 -1.96875q-1.078125 -0.6875 -2.484375 -0.6875q-1.359375 0 -2.4375 0.6875q-1.0625 0.6875 -1.6875 1.953125q-0.609375 1.265625 -0.609375 2.90625q0 1.671875 0.609375 2.953125q0.625 1.265625 1.6875 1.96875q1.078125 0.6875 2.4375 0.6875zm18.634705 -14.59375q0.90625 0 2.21875 0.421875l0 3.65625q-1.546875 -0.75 -2.21875 -0.75q-1.234375 0 -2.3125 0.703125q-1.0625 0.6875 -1.734375 2.046875q-0.671875 1.359375 -0.671875 3.265625l0 8.15625l-3.640625 0l0 -16.96875l3.640625 0l-0.203125 1.859375q-0.109375 -0.25 1.421875 -1.3125q1.546875 -1.078125 3.5 -1.078125zm20.235718 0q2.453125 0 4.078125 1.71875q1.640625 1.71875 1.640625 4.65625l0 11.125l-3.640625 0l0 -10.125q0 -2.203125 -0.75 -3.0625q-0.75 -0.875 -1.9375 -0.875q-1.46875 0 -2.328125 1.203125q-0.859375 1.1875 -1.015625 3.40625l0 9.453125l-3.640625 0l0 -10.125q0 -2.203125 -0.75 -3.0625q-0.734375 -0.875 -1.921875 -0.875q-1.640625 0 -2.515625 1.453125q-0.875 1.4375 -0.875 4.125l0 8.484375l-3.640625 0l0 -16.96875l3.640625 0l-0.28125 1.5q-0.15625 -0.296875 1.1875 -1.15625q1.34375 -0.875 3.078125 -0.875q1.921875 0 3.375 1.046875q1.453125 1.046875 1.484375 1.28125q0.046875 -0.21875 1.484375 -1.265625q1.4375 -1.0625 3.328125 -1.0625zm14.553223 18.03125q-2.453125 0 -4.328125 -1.0625q-1.875 -1.0625 -3.203125 -3.640625l3.296875 -1.609375q1.34375 2.875 4.5 2.875q1.5625 0 2.4375 -0.484375q0.875 -0.5 0.875 -1.421875q0 -1.03125 -0.703125 -1.53125q-0.6875 -0.5 -2.796875 -0.6875q-3.421875 -0.28125 -5.015625 -1.625q-1.578125 -1.34375 -1.578125 -3.59375q0 -2.515625 1.796875 -3.875q1.796875 -1.375 4.75 -1.375q5.078125 0 7.21875 4.671875l-3.296875 1.609375q-0.765625 -1.78125 -1.671875 -2.3125q-0.890625 -0.53125 -2.40625 -0.53125q-1.515625 0 -2.203125 0.46875q-0.671875 0.46875 -0.671875 1.28125q0 0.734375 0.75 1.265625q0.75 0.515625 2.984375 0.703125q3.171875 0.28125 4.828125 1.640625q1.65625 1.359375 1.65625 3.609375q0 1.8125 -1.03125 3.109375q-1.03125 1.28125 -2.6875 1.90625q-1.640625 0.609375 -3.5 0.609375z" fill-rule="nonzero"/></g></svg>